<?xml version="1.0" encoding="UTF-8" standalone="no"?>
<!-- Created with Inkscape (http://www.inkscape.org/) -->

<svg
   xmlns:dc="http://purl.org/dc/elements/1.1/"
   xmlns:cc="http://creativecommons.org/ns#"
   xmlns:rdf="http://www.w3.org/1999/02/22-rdf-syntax-ns#"
   xmlns:svg="http://www.w3.org/2000/svg"
   xmlns="http://www.w3.org/2000/svg"
   xmlns:sodipodi="http://sodipodi.sourceforge.net/DTD/sodipodi-0.dtd"
   xmlns:inkscape="http://www.inkscape.org/namespaces/inkscape"
   sodipodi:docname="oil-temp.svg"
   inkscape:version="0.48.2 r9819"
   version="1.1"
   id="svg2"
   height="256"
   width="256">
  <defs
     id="defs4">
    <inkscape:perspective
       sodipodi:type="inkscape:persp3d"
       inkscape:vp_x="0 : 526.18109 : 1"
       inkscape:vp_y="0 : 1000 : 0"
       inkscape:vp_z="744.09448 : 526.18109 : 1"
       inkscape:persp3d-origin="372.04724 : 350.78739 : 1"
       id="perspective10-1" />
    <inkscape:perspective
       id="perspective2390-5"
       inkscape:persp3d-origin="372.04724 : 350.78739 : 1"
       inkscape:vp_z="744.09448 : 526.18109 : 1"
       inkscape:vp_y="0 : 1000 : 0"
       inkscape:vp_x="0 : 526.18109 : 1"
       sodipodi:type="inkscape:persp3d" />
    <inkscape:perspective
       sodipodi:type="inkscape:persp3d"
       inkscape:vp_x="0 : 526.18109 : 1"
       inkscape:vp_y="0 : 1000 : 0"
       inkscape:vp_z="744.09448 : 526.18109 : 1"
       inkscape:persp3d-origin="372.04724 : 350.78739 : 1"
       id="perspective10-2" />
    <inkscape:perspective
       id="perspective2390-4"
       inkscape:persp3d-origin="372.04724 : 350.78739 : 1"
       inkscape:vp_z="744.09448 : 526.18109 : 1"
       inkscape:vp_y="0 : 1000 : 0"
       inkscape:vp_x="0 : 526.18109 : 1"
       sodipodi:type="inkscape:persp3d" />
    <inkscape:perspective
       id="perspective2403"
       inkscape:persp3d-origin="372.04724 : 350.78739 : 1"
       inkscape:vp_z="744.09448 : 526.18109 : 1"
       inkscape:vp_y="0 : 1000 : 0"
       inkscape:vp_x="0 : 526.18109 : 1"
       sodipodi:type="inkscape:persp3d" />
    <inkscape:perspective
       id="perspective2389"
       inkscape:persp3d-origin="372.04724 : 350.78739 : 1"
       inkscape:vp_z="744.09448 : 526.18109 : 1"
       inkscape:vp_y="0 : 1000 : 0"
       inkscape:vp_x="0 : 526.18109 : 1"
       sodipodi:type="inkscape:persp3d" />
    <inkscape:perspective
       sodipodi:type="inkscape:persp3d"
       inkscape:vp_x="0 : 526.18109 : 1"
       inkscape:vp_y="0 : 1000 : 0"
       inkscape:vp_z="744.09448 : 526.18109 : 1"
       inkscape:persp3d-origin="372.04724 : 350.78739 : 1"
       id="perspective10-4" />
    <inkscape:perspective
       id="perspective2390"
       inkscape:persp3d-origin="372.04724 : 350.78739 : 1"
       inkscape:vp_z="744.09448 : 526.18109 : 1"
       inkscape:vp_y="0 : 1000 : 0"
       inkscape:vp_x="0 : 526.18109 : 1"
       sodipodi:type="inkscape:persp3d" />
    <inkscape:perspective
       id="perspective3223"
       inkscape:persp3d-origin="372.04724 : 350.78739 : 1"
       inkscape:vp_z="744.09448 : 526.18109 : 1"
       inkscape:vp_y="0 : 1000 : 0"
       inkscape:vp_x="0 : 526.18109 : 1"
       sodipodi:type="inkscape:persp3d" />
    <inkscape:perspective
       id="perspective10"
       inkscape:persp3d-origin="372.04724 : 350.78739 : 1"
       inkscape:vp_z="744.09448 : 526.18109 : 1"
       inkscape:vp_y="0 : 1000 : 0"
       inkscape:vp_x="0 : 526.18109 : 1"
       sodipodi:type="inkscape:persp3d" />
  </defs>
  <sodipodi:namedview
     id="base"
     pagecolor="#cccc6b"
     bordercolor="#666666"
     borderopacity="1.0"
     inkscape:pageopacity="1"
     inkscape:pageshadow="2"
     inkscape:zoom="3.1764706"
     inkscape:cx="111.87534"
     inkscape:cy="143.39071"
     inkscape:document-units="px"
     inkscape:current-layer="layer5"
     showgrid="false"
     inkscape:showpageshadow="false"
     inkscape:window-width="1920"
     inkscape:window-height="1005"
     inkscape:window-x="0"
     inkscape:window-y="25"
     inkscape:window-maximized="1"
     showguides="true"
     inkscape:guide-bbox="true">
    <sodipodi:guide
       orientation="1,0"
       position="128,128"
       id="guide4025" />
    <sodipodi:guide
       orientation="0,1"
       position="128,128"
       id="guide4027" />
    <sodipodi:guide
       orientation="0,1"
       position="128,90"
       id="guide4031" />
    <sodipodi:guide
       orientation="0,1"
       position="39.686671,176.26356"
       id="guide4052" />
  </sodipodi:namedview>
  <metadata
     id="metadata7">
    <rdf:RDF>
      <cc:Work
         rdf:about="">
        <dc:format>image/svg+xml</dc:format>
        <dc:type
           rdf:resource="http://purl.org/dc/dcmitype/StillImage" />
        <dc:title></dc:title>
      </cc:Work>
    </rdf:RDF>
  </metadata>
  <g
     inkscape:label="Fond"
     inkscape:groupmode="layer"
     id="layer1"
     transform="translate(0,-796.36218)"
     style="display:inline">
    <path
       sodipodi:type="arc"
       style="fill:#000000;fill-opacity:1;fill-rule:nonzero;stroke:none"
       id="path2985"
       sodipodi:cx="123.74369"
       sodipodi:cy="122.65987"
       sodipodi:rx="93.43911"
       sodipodi:ry="101.52033"
       d="m 217.1828,122.65987 a 93.43911,101.52033 0 1 1 -186.878219,0 93.43911,101.52033 0 1 1 186.878219,0 z"
       transform="matrix(1.3698761,0,0,1.2608312,-41.51352,769.7088)" />
  </g>
  <g
     inkscape:groupmode="layer"
     id="layer4"
     inkscape:label="grille"
     style="display:inline">
    <rect
       style="fill:#ffffff;fill-opacity:1;fill-rule:nonzero;stroke:none"
       id="rect4006"
       width="256"
       height="4"
       x="0"
       y="250" />
    <rect
       y="238"
       x="0"
       height="4"
       width="256"
       id="rect4008"
       style="fill:#ffffff;fill-opacity:1;fill-rule:nonzero;stroke:none" />
    <rect
       style="fill:#ffffff;fill-opacity:1;fill-rule:nonzero;stroke:none"
       id="rect4010"
       width="256"
       height="4"
       x="0"
       y="226" />
    <rect
       y="214"
       x="0"
       height="4"
       width="256"
       id="rect4012"
       style="fill:#ffffff;fill-opacity:1;fill-rule:nonzero;stroke:none" />
    <rect
       style="fill:#ffffff;fill-opacity:1;fill-rule:nonzero;stroke:none"
       id="rect4014"
       width="256"
       height="4"
       x="0"
       y="202" />
    <rect
       y="190"
       x="0"
       height="4"
       width="256"
       id="rect4018"
       style="fill:#ffffff;fill-opacity:1;fill-rule:nonzero;stroke:none" />
    <rect
       style="fill:#ffffff;fill-opacity:1;fill-rule:nonzero;stroke:none"
       id="rect4020"
       width="256"
       height="4"
       x="0"
       y="178" />
    <rect
       y="166"
       x="0"
       height="4"
       width="256"
       id="rect4022"
       style="fill:#ffffff;fill-opacity:1;fill-rule:nonzero;stroke:none" />
  </g>
  <g
     inkscape:groupmode="layer"
     id="layer5"
     inkscape:label="grade"
     style="display:inline">
    <rect
       style="fill:#ffffff;fill-opacity:1;fill-rule:nonzero;stroke:none"
       id="rect4029"
       width="3"
       height="18"
       x="126.5"
       y="56"
       inkscape:transform-center-y="-101" />
    <rect
       inkscape:transform-center-y="-94.477674"
       y="75.148788"
       x="32.038673"
       height="18.192133"
       width="3.0055184"
       id="rect4033"
       style="fill:#ffffff;fill-opacity:1;fill-rule:nonzero;stroke:none"
       transform="matrix(0.92218322,-0.38675329,0.3786418,0.92554329,0,0)"
       inkscape:transform-center-x="38.65103" />
    <rect
       inkscape:transform-center-y="-94.47768"
       y="-23.863846"
       x="201.90396"
       height="18.192133"
       width="3.0055184"
       id="rect4035"
       style="fill:#ffffff;fill-opacity:1;fill-rule:nonzero;stroke:none"
       transform="matrix(0.92218322,0.38675329,-0.3786418,0.92554329,0,0)"
       inkscape:transform-center-x="-38.651018" />
    <path
       sodipodi:type="arc"
       style="fill:#ffffff;fill-opacity:1;fill-rule:nonzero;stroke:none"
       id="path4037"
       sodipodi:cx="131.797"
       sodipodi:cy="170.75995"
       sodipodi:rx="3.7970045"
       sodipodi:ry="4.7599411"
       d="m 135.594,170.75995 a 3.7970045,4.7599411 0 1 1 -7.59401,0 3.7970045,4.7599411 0 1 1 7.59401,0 z"
       transform="matrix(0.26336551,0,0,0.21008663,93.289217,150.32562)" />
    <text
       xml:space="preserve"
       style="font-size:18px;font-style:normal;font-variant:normal;font-weight:normal;font-stretch:normal;line-height:125%;letter-spacing:0px;word-spacing:0px;fill:#ffffff;fill-opacity:1;stroke:none;font-family:URW Gothic L;-inkscape-font-specification:Sans"
       x="59.935001"
       y="91.792"
       id="text4054"
       sodipodi:linespacing="125%"><tspan
         sodipodi:role="line"
         id="tspan4056"
         x="59.935001"
         y="91.792"
         style="font-size:16px">0</tspan></text>
    <text
       xml:space="preserve"
       style="font-size:18.00078392px;font-style:normal;font-variant:normal;font-weight:normal;font-stretch:normal;line-height:125%;letter-spacing:0px;word-spacing:0px;fill:#ffffff;fill-opacity:1;stroke:none;font-family:URW Gothic L;-inkscape-font-specification:Sans"
       x="102.19955"
       y="91.796005"
       id="text4058"
       sodipodi:linespacing="125%"
       transform="scale(1.0000435,0.9999565)"><tspan
         sodipodi:role="line"
         id="tspan4060"
         x="102.19955"
         y="91.796005"
         style="font-size:16px">4</tspan></text>
    <text
       xml:space="preserve"
       style="font-size:18px;font-style:normal;font-variant:normal;font-weight:normal;font-stretch:normal;line-height:125%;letter-spacing:0px;word-spacing:0px;fill:#ffffff;fill-opacity:1;stroke:none;font-family:URW Gothic L;-inkscape-font-specification:Sans"
       x="184.47459"
       y="91.792"
       id="text4062"
       sodipodi:linespacing="125%"><tspan
         sodipodi:role="line"
         id="tspan4064"
         x="184.47459"
         y="91.792"
         style="font-size:16px">10</tspan></text>
    <rect
       transform="matrix(0.96873892,-0.24808245,0.25269596,0.96754574,0,0)"
       style="fill:#ffffff;fill-opacity:1;fill-rule:nonzero;stroke:none"
       id="rect3035"
       width="2.9981689"
       height="17.83503"
       x="65.968117"
       y="75.561623" />
    <rect
       y="14.979153"
       x="-170.30948"
       height="17.83503"
       width="2.9981689"
       id="rect3037"
       style="fill:#ffffff;fill-opacity:1;fill-rule:nonzero;stroke:none"
       transform="matrix(-0.96873892,-0.24808245,-0.25269596,0.96754574,0,0)" />
    <text
       transform="scale(1.0000435,0.9999565)"
       sodipodi:linespacing="125%"
       id="text3039"
       y="91.796005"
       x="82.400391"
       style="font-size:18.00078392px;font-style:normal;font-variant:normal;font-weight:normal;font-stretch:normal;line-height:125%;letter-spacing:0px;word-spacing:0px;fill:#ffffff;fill-opacity:1;stroke:none;font-family:URW Gothic L;-inkscape-font-specification:Sans"
       xml:space="preserve"><tspan
         style="font-size:16px"
         y="91.796005"
         x="82.400391"
         id="tspan3041"
         sodipodi:role="line">2</tspan></text>
    <text
       transform="scale(1.0000435,0.9999565)"
       sodipodi:linespacing="125%"
       id="text3043"
       y="91.796005"
       x="153.89728"
       style="font-size:18.00078392px;font-style:normal;font-variant:normal;font-weight:normal;font-stretch:normal;line-height:125%;letter-spacing:0px;word-spacing:0px;fill:#ffffff;fill-opacity:1;stroke:none;font-family:URW Gothic L;-inkscape-font-specification:Sans"
       xml:space="preserve"><tspan
         style="font-size:16px"
         y="91.796005"
         x="153.89728"
         id="tspan3045"
         sodipodi:role="line">8</tspan></text>
    <rect
       y="67.490173"
       x="96.795952"
       height="17.83503"
       width="2.9981689"
       id="rect3191"
       style="fill:#ffffff;fill-opacity:1;fill-rule:nonzero;stroke:none"
       transform="matrix(0.99383762,-0.11084573,0.1155804,0.99329813,0,0)" />
    <text
       transform="scale(1.0000435,0.9999565)"
       sodipodi:linespacing="125%"
       id="text3193"
       y="91.796005"
       x="123.49861"
       style="font-size:18.00078392px;font-style:normal;font-variant:normal;font-weight:normal;font-stretch:normal;line-height:125%;letter-spacing:0px;word-spacing:0px;fill:#ffffff;fill-opacity:1;stroke:none;font-family:URW Gothic L;-inkscape-font-specification:Sans"
       xml:space="preserve"><tspan
         style="font-size:16px"
         y="91.796005"
         x="123.49861"
         sodipodi:role="line"
         id="tspan3197">6</tspan></text>
    <text
       xml:space="preserve"
       style="font-size:18.00078392px;font-style:normal;font-variant:normal;font-weight:normal;font-stretch:normal;line-height:125%;letter-spacing:0px;word-spacing:0px;fill:#ffffff;fill-opacity:1;stroke:none;font-family:URW Gothic L;-inkscape-font-specification:Sans"
       x="117.49483"
       y="114.29698"
       id="text3201"
       sodipodi:linespacing="125%"
       transform="scale(1.0000435,0.9999565)"><tspan
         id="tspan3203"
         sodipodi:role="line"
         x="117.49483"
         y="114.29698"
         style="font-size:16px">PSI</tspan></text>
  </g>
  <g
     inkscape:groupmode="layer"
     id="layer7"
     inkscape:label="logo"
     style="display:none">
    <rect
       style="fill:#ffffff;fill-opacity:1;fill-rule:nonzero;stroke:none"
       id="rect4067"
       width="3.5121453"
       height="48"
       x="145.23785"
       y="112" />
    <rect
       style="fill:#ffffff;fill-opacity:1;fill-rule:nonzero;stroke:none"
       id="rect4069"
       width="28.097162"
       height="4"
       x="120.65285"
       y="108" />
    <rect
       style="fill:#ffffff;fill-opacity:1;fill-rule:nonzero;stroke:none"
       id="rect4071"
       width="40.975029"
       height="4"
       x="104.26283"
       y="156" />
    <rect
       style="fill:#ffffff;fill-opacity:1;fill-rule:nonzero;stroke:none"
       id="rect4073"
       width="3.5121453"
       height="32"
       x="100.75068"
       y="128" />
    <rect
       style="fill:#ffffff;fill-opacity:1;fill-rule:nonzero;stroke:none"
       id="rect4075"
       width="4.3815475"
       height="28.235823"
       x="164.51389"
       y="-38.752071"
       transform="matrix(0.56732042,0.82349714,-0.70499683,0.70921046,0,0)" />
  </g>
  <g
     inkscape:groupmode="layer"
     id="layer2"
     inkscape:label="logo2"
     style="display:inline">
    <path
       style="fill:#ffffff;fill-opacity:1;fill-rule:nonzero;stroke:#ffffff;stroke-width:0.16770566;stroke-linecap:butt;stroke-linejoin:miter;stroke-miterlimit:4;stroke-opacity:1;stroke-dasharray:none;stroke-dashoffset:0"
       d="m 144.54531,154.8718 c 1.49855,-0.0981 3.04844,-0.38126 3.75379,-0.68566 1.17999,-0.50934 1.31821,-0.98048 1.43303,-4.88526 0.0813,-2.76427 0.15366,-3.46934 0.37427,-3.64744 0.15043,-0.12135 2.6529,-1.00138 5.56111,-1.95555 2.9082,-0.95406 5.72885,-1.89852 6.26812,-2.0986 l 0.98054,-0.36391 -0.11523,-0.60961 c -0.16385,-0.86701 -1.87568,-6.21721 -2.19801,-6.86987 -0.32259,-0.65314 -0.67058,-0.7929 -1.44154,-0.57902 -1.24665,0.34587 -10.32229,3.42227 -11.17779,3.78898 -1.16526,0.49955 -1.27709,0.63056 -1.38411,1.62063 -0.14486,1.34001 -0.13889,1.33818 -4.29423,1.33818 -4.45392,0 -4.41511,0.0121 -4.41511,-1.45195 0,-0.6581 0.0857,-1.11442 0.22789,-1.21189 0.12534,-0.0858 0.86804,-0.18289 1.65013,-0.21509 1.58253,-0.0652 1.7613,-0.17294 1.76583,-1.06362 0.006,-1.1229 -0.0596,-1.1412 -4.28334,-1.20246 -3.79135,-0.055 -5.42335,0.0243 -5.9259,0.28686 -0.29466,0.15391 -0.3923,1.56854 -0.124,1.79546 0.0814,0.0693 0.85975,0.1614 1.72964,0.2057 l 1.58172,0.0797 0.11667,0.61086 c 0.15237,0.7973 -0.002,1.72904 -0.32326,1.95479 -0.16211,0.11383 -1.53482,0.21627 -3.75974,0.28056 -3.76799,0.10893 -4.15628,0.18706 -5.05425,1.01616 -0.90715,0.83769 -2.21582,1.61359 -2.72147,1.61359 -0.2754,0 -6.073,-1.39215 -12.88363,-3.0936 -6.8105,-1.70158 -12.818675,-3.13468 -13.351481,-3.18486 -0.951602,-0.0897 -0.982876,-0.0784 -1.769887,0.57417 -0.899113,0.74657 -1.13941,1.34349 -0.810902,2.01446 0.289845,0.592 0.912108,0.71884 1.822544,0.37148 1.616011,-0.61652 4.618986,0.0774 7.050296,1.63093 0.57627,0.36805 3.05534,2.74284 6.32933,6.06292 2.96004,3.00188 5.79755,5.77401 6.30535,6.16033 1.0934,0.8316 2.42636,1.24418 4.83355,1.49588 1.56689,0.16384 22.23534,0.348 24.25007,0.21609 l 0,0 z m -25.52646,-2.44022 c -1.23853,-0.28131 -1.00326,-0.094 -4.74063,-3.78429 -4.12085,-4.06939 -5.56113,-5.72769 -5.56113,-6.40276 0,-0.13056 0.0759,-0.23743 0.16889,-0.23743 0.093,0 2.98507,0.68535 6.42718,1.52308 3.44213,0.83768 6.59665,1.57111 7.01017,1.62981 1.00601,0.14298 1.68287,-0.12549 3.24699,-1.28865 0.69516,-0.51683 1.55656,-1.01788 1.9146,-1.11345 0.8733,-0.23317 8.74246,-0.39866 13.07468,-0.27499 5.59073,0.15962 5.9014,0.44232 5.89918,5.36831 -4.2e-4,1.23974 -0.0893,2.5233 -0.19736,2.85231 -0.62223,1.89571 -2.38258,2.10504 -17.0321,2.02589 -7.67932,-0.0411 -9.28897,-0.0886 -10.21047,-0.29783 l 0,0 z m 30.91164,-10.10593 c -0.23383,-0.36956 -0.24872,-2.47888 -0.0211,-2.98544 0.22499,-0.5007 0.9294,-0.82959 4.03858,-1.88565 2.58767,-0.87891 4.19879,-1.19638 4.4344,-0.87384 0.24531,0.33582 1.22071,3.31865 1.14197,3.49223 -0.0452,0.0997 -0.52122,0.2646 -1.05786,0.36653 -0.53663,0.10187 -2.37052,0.63197 -4.07531,1.17792 -3.32135,1.06375 -4.15238,1.19574 -4.46072,0.70825 z"
       id="path3187"
       inkscape:connector-curvature="0" />
    <path
       style="fill:#ffffff;fill-opacity:1;fill-rule:nonzero;stroke:#ffffff;stroke-width:0.17880033;stroke-linecap:butt;stroke-linejoin:miter;stroke-miterlimit:4;stroke-opacity:1;stroke-dasharray:none;stroke-dashoffset:0"
       d="m 95.985466,140.242 c 1.130709,-0.67493 1.3459,-2.25946 0.614598,-4.52542 -0.249022,-0.7716 -0.502336,-1.91586 -0.562923,-2.5428 -0.26264,-2.71764 -0.991568,-3.14713 -1.785746,-1.05219 -0.411996,1.08678 -1.018541,4.04218 -1.133706,5.52403 -0.110625,1.42335 0.079,1.89509 1.002396,2.49368 0.725917,0.47057 1.204908,0.49695 1.865381,0.1027 l 0,0 z"
       id="path3189"
       inkscape:connector-curvature="0" />
  </g>
</svg>
